<?xml version="1.0" encoding="utf-8"?><svg xmlns="http://www.w3.org/2000/svg" xmlns:xlink="http://www.w3.org/1999/xlink" width="1440" height="722" preserveAspectRatio="xMidYMid" viewBox="0 0 1440 722" style="z-index:1;margin-right:-2px;display:block;background-repeat-y:initial;background-repeat-x:initial;background-color:rgb(255, 255, 255);animation-play-state:paused" ><g transform="translate(720,361) scale(1,1) translate(-720,-361)" style="transform:matrix(1, 0, 0, 1, 0, 0);animation-play-state:paused" ><linearGradient id="lg-0.24657705088711168" x1="0" x2="1" y1="0" y2="0" style="animation-play-state:paused" ><stop stop-color="#ff00ff" offset="0" style="animation-play-state:paused" ></stop>

  
<stop stop-color="#00ffff" offset="1" style="animation-play-state:paused" ></stop></linearGradient>
<path d="M 0 0 L 0 644.947 Q 144 673.457 288 650.793 T 576 586.06 T 864 490.09 T 1152 444.499 T 1440 311.549 L 1440 0 Z" fill="url(#lg-0.24657705088711168)" opacity="0.4" style="opacity:0.4;animation-play-state:paused" ></path>
<path d="M 0 0 L 0 630.314 Q 144 616.46 288 588.268 T 576 516.442 T 864 393.297 T 1152 307.607 T 1440 286.244 L 1440 0 Z" fill="url(#lg-0.24657705088711168)" opacity="0.4" style="opacity:0.4;animation-play-state:paused" ></path>
<path d="M 0 0 L 0 598.45 Q 144 645.713 288 597.044 T 576 488.215 T 864 452.115 T 1152 386.774 T 1440 289.946 L 1440 0 Z" fill="url(#lg-0.24657705088711168)" opacity="0.4" style="opacity:0.4;animation-play-state:paused" ></path>
<path d="M 0 0 L 0 652.912 Q 144 605.994 288 588.089 T 576 566.74 T 864 507.144 T 1152 393.276 T 1440 317.214 L 1440 0 Z" fill="url(#lg-0.24657705088711168)" opacity="0.4" style="opacity:0.4;animation-play-state:paused" ></path>
<path d="M 0 0 L 0 634.227 Q 144 597.511 288 558.232 T 576 497.703 T 864 432.768 T 1152 392.466 T 1440 289.607 L 1440 0 Z" fill="url(#lg-0.24657705088711168)" opacity="0.4" style="opacity:0.4;animation-play-state:paused" ></path></g></svg>