<?xml version="1.0" encoding="utf-8"?><svg xmlns="http://www.w3.org/2000/svg" xmlns:xlink="http://www.w3.org/1999/xlink" width="1920" height="902" preserveAspectRatio="xMidYMid" viewBox="0 0 1920 902" style="z-index:1;margin-right:-2px;display:block;background-repeat-y:initial;background-repeat-x:initial;background-color:rgb(255, 255, 255);animation-play-state:paused" ><g transform="translate(960,451) scale(1,1) translate(-960,-451)" style="transform:matrix(1, 0, 0, 1, 0, 0);animation-play-state:paused" ><linearGradient id="lg-0.5103560764660433" x1="0" x2="1" y1="0" y2="0" style="animation-play-state:paused" ><stop stop-color="#ff00ff" offset="0" style="animation-play-state:paused" ></stop>

  
<stop stop-color="#00ffff" offset="1" style="animation-play-state:paused" ></stop></linearGradient>
<path d="M 0 0 M 0 816.731 Q 192 775.093 384 765.582 T 768 714.266 T 1152 688.656 T 1536 672.46 T 1920 632.526 L 1920 285.359 Q 1728 276.052 1536 273.839 T 1152 154.956 T 768 161.21 T 384 110.901 T 0 58.6557 Z" fill="url(#lg-0.5103560764660433)" opacity="0.4" style="opacity:0.4;animation-play-state:paused" ></path>
<path d="M 0 0 M 0 797.085 Q 192 812.404 384 804.531 T 768 791.51 T 1152 745.534 T 1536 689.947 T 1920 682.077 L 1920 266.241 Q 1728 213.112 1536 211.16 T 1152 222.573 T 768 108.698 T 384 137.425 T 0 58.2828 Z" fill="url(#lg-0.5103560764660433)" opacity="0.4" style="opacity:0.4;animation-play-state:paused" ></path>
<path d="M 0 0 M 0 823.335 Q 192 747.124 384 745.132 T 768 712.95 T 1152 688.201 T 1536 695.155 T 1920 654.086 L 1920 240.105 Q 1728 209.278 1536 202.708 T 1152 219.492 T 768 180.216 T 384 87.2787 T 0 112.834 Z" fill="url(#lg-0.5103560764660433)" opacity="0.4" style="opacity:0.4;animation-play-state:paused" ></path>
<path d="M 0 0 M 0 844.769 Q 192 778.507 384 776.352 T 768 722.213 T 1152 718.079 T 1536 644.402 T 1920 661.936 L 1920 282.063 Q 1728 220.067 1536 217.218 T 1152 158.787 T 768 201.093 T 384 89.6896 T 0 108.996 Z" fill="url(#lg-0.5103560764660433)" opacity="0.4" style="opacity:0.4;animation-play-state:paused" ></path></g></svg>